<svg xmlns="http://www.w3.org/2000/svg" version="1.1" xmlns:xlink="http://www.w3.org/1999/xlink" xmlns:svgjs="http://svgjs.dev/svgjs" width="1440" height="750" preserveAspectRatio="none" viewBox="0 0 1440 750"><g mask="url(&quot;#SvgjsMask1010&quot;)" fill="none"><rect width="1440" height="750" x="0" y="0" fill="#0e2a47"></rect><path d="M-102.29 545.96L-102.29 545.96" stroke="rgba(62, 32, 147, 1)" stroke-width="1.5"></path><path d="M-102.29 545.96L-84.42 670.95" stroke="rgba(62, 32, 147, 1)" stroke-width="1.5"></path><path d="M-102.29 545.96L73.15 552.33" stroke="rgba(62, 32, 147, 1)" stroke-width="1.5"></path><path d="M-102.29 545.96L50.21 698.19" stroke="rgba(62, 32, 147, 1)" stroke-width="1.5"></path><path d="M-102.29 545.96L189.25 525.87" stroke="rgba(62, 32, 147, 1)" stroke-width="1.5"></path><path d="M-102.29 545.96L-101.74 844.41" stroke="rgba(62, 32, 147, 1)" stroke-width="1.5"></path><path d="M-84.42 670.95L-84.42 670.95" stroke="rgba(62, 32, 147, 1)" stroke-width="1.5"></path><path d="M-84.42 670.95L50.21 698.19" stroke="rgba(62, 32, 147, 1)" stroke-width="1.5"></path><path d="M-84.42 670.95L-101.74 844.41" stroke="rgba(62, 32, 147, 1)" stroke-width="1.5"></path><path d="M-101.74 844.41L-101.74 844.41" stroke="rgba(62, 32, 147, 1)" stroke-width="1.5"></path><path d="M-101.74 844.41L41.86 827.14" stroke="rgba(62, 32, 147, 1)" stroke-width="1.5"></path><path d="M73.15 552.33L73.15 552.33" stroke="rgba(62, 32, 147, 1)" stroke-width="1.5"></path><path d="M73.15 552.33L189.25 525.87" stroke="rgba(62, 32, 147, 1)" stroke-width="1.5"></path><path d="M73.15 552.33L50.21 698.19" stroke="rgba(62, 32, 147, 1)" stroke-width="1.5"></path><path d="M50.21 698.19L50.21 698.19" stroke="rgba(62, 32, 147, 1)" stroke-width="1.5"></path><path d="M50.21 698.19L41.86 827.14" stroke="rgba(62, 32, 147, 1)" stroke-width="1.5"></path><path d="M41.86 827.14L41.86 827.14" stroke="rgba(62, 32, 147, 1)" stroke-width="1.5"></path><path d="M41.86 827.14L196.95 823.79" stroke="rgba(62, 32, 147, 1)" stroke-width="1.5"></path><path d="M41.86 827.14L-84.42 670.95" stroke="rgba(62, 32, 147, 1)" stroke-width="1.5"></path><path d="M41.86 827.14L73.15 552.33" stroke="rgba(62, 32, 147, 1)" stroke-width="1.5"></path><path d="M41.86 827.14L-102.29 545.96" stroke="rgba(62, 32, 147, 1)" stroke-width="1.5"></path><path d="M189.25 525.87L189.25 525.87" stroke="rgba(62, 32, 147, 1)" stroke-width="1.5"></path><path d="M189.25 525.87L363.86 548.39" stroke="rgba(62, 32, 147, 1)" stroke-width="1.5"></path><path d="M189.25 525.87L340.12 675.35" stroke="rgba(62, 32, 147, 1)" stroke-width="1.5"></path><path d="M196.95 823.79L196.95 823.79" stroke="rgba(62, 32, 147, 1)" stroke-width="1.5"></path><path d="M196.95 823.79L375.72 850.12" stroke="rgba(62, 32, 147, 1)" stroke-width="1.5"></path><path d="M196.95 823.79L50.21 698.19" stroke="rgba(62, 32, 147, 1)" stroke-width="1.5"></path><path d="M363.86 548.39L363.86 548.39" stroke="rgba(62, 32, 147, 1)" stroke-width="1.5"></path><path d="M363.86 548.39L340.12 675.35" stroke="rgba(62, 32, 147, 1)" stroke-width="1.5"></path><path d="M363.86 548.39L506.82 544.86" stroke="rgba(62, 32, 147, 1)" stroke-width="1.5"></path><path d="M363.86 548.39L554.04 685.09" stroke="rgba(62, 32, 147, 1)" stroke-width="1.5"></path><path d="M363.86 548.39L546.07 396.44" stroke="rgba(62, 32, 147, 1)" stroke-width="1.5"></path><path d="M363.86 548.39L73.15 552.33" stroke="rgba(62, 32, 147, 1)" stroke-width="1.5"></path><path d="M340.12 675.35L340.12 675.35" stroke="rgba(62, 32, 147, 1)" stroke-width="1.5"></path><path d="M340.12 675.35L375.72 850.12" stroke="rgba(62, 32, 147, 1)" stroke-width="1.5"></path><path d="M340.12 675.35L196.95 823.79" stroke="rgba(62, 32, 147, 1)" stroke-width="1.5"></path><path d="M340.12 675.35L506.82 544.86" stroke="rgba(62, 32, 147, 1)" stroke-width="1.5"></path><path d="M375.72 850.12L375.72 850.12" stroke="rgba(62, 32, 147, 1)" stroke-width="1.5"></path><path d="M375.72 850.12L559.4 795.58" stroke="rgba(62, 32, 147, 1)" stroke-width="1.5"></path><path d="M375.72 850.12L554.04 685.09" stroke="rgba(62, 32, 147, 1)" stroke-width="1.5"></path><path d="M375.72 850.12L649.24 788.34" stroke="rgba(62, 32, 147, 1)" stroke-width="1.5"></path><path d="M546.07 396.44L546.07 396.44" stroke="rgba(62, 32, 147, 1)" stroke-width="1.5"></path><path d="M546.07 396.44L691.14 403.88" stroke="rgba(62, 32, 147, 1)" stroke-width="1.5"></path><path d="M546.07 396.44L506.82 544.86" stroke="rgba(62, 32, 147, 1)" stroke-width="1.5"></path><path d="M506.82 544.86L506.82 544.86" stroke="rgba(62, 32, 147, 1)" stroke-width="1.5"></path><path d="M506.82 544.86L554.04 685.09" stroke="rgba(62, 32, 147, 1)" stroke-width="1.5"></path><path d="M554.04 685.09L554.04 685.09" stroke="rgba(62, 32, 147, 1)" stroke-width="1.5"></path><path d="M554.04 685.09L640.46 693.59" stroke="rgba(62, 32, 147, 1)" stroke-width="1.5"></path><path d="M554.04 685.09L559.4 795.58" stroke="rgba(62, 32, 147, 1)" stroke-width="1.5"></path><path d="M554.04 685.09L649.24 788.34" stroke="rgba(62, 32, 147, 1)" stroke-width="1.5"></path><path d="M559.4 795.58L559.4 795.58" stroke="rgba(62, 32, 147, 1)" stroke-width="1.5"></path><path d="M559.4 795.58L649.24 788.34" stroke="rgba(62, 32, 147, 1)" stroke-width="1.5"></path><path d="M703.68 261.64L703.68 261.64" stroke="rgba(62, 32, 147, 1)" stroke-width="1.5"></path><path d="M703.68 261.64L791.81 261.05" stroke="rgba(62, 32, 147, 1)" stroke-width="1.5"></path><path d="M703.68 261.64L691.14 403.88" stroke="rgba(62, 32, 147, 1)" stroke-width="1.5"></path><path d="M703.68 261.64L846.4 399.57" stroke="rgba(62, 32, 147, 1)" stroke-width="1.5"></path><path d="M703.68 261.64L546.07 396.44" stroke="rgba(62, 32, 147, 1)" stroke-width="1.5"></path><path d="M703.68 261.64L789.56 509.7" stroke="rgba(62, 32, 147, 1)" stroke-width="1.5"></path><path d="M691.14 403.88L691.14 403.88" stroke="rgba(62, 32, 147, 1)" stroke-width="1.5"></path><path d="M691.14 403.88L709.01 536.04" stroke="rgba(62, 32, 147, 1)" stroke-width="1.5"></path><path d="M691.14 403.88L789.56 509.7" stroke="rgba(62, 32, 147, 1)" stroke-width="1.5"></path><path d="M691.14 403.88L846.4 399.57" stroke="rgba(62, 32, 147, 1)" stroke-width="1.5"></path><path d="M691.14 403.88L791.81 261.05" stroke="rgba(62, 32, 147, 1)" stroke-width="1.5"></path><path d="M709.01 536.04L709.01 536.04" stroke="rgba(62, 32, 147, 1)" stroke-width="1.5"></path><path d="M709.01 536.04L789.56 509.7" stroke="rgba(62, 32, 147, 1)" stroke-width="1.5"></path><path d="M709.01 536.04L809.86 675.07" stroke="rgba(62, 32, 147, 1)" stroke-width="1.5"></path><path d="M709.01 536.04L640.46 693.59" stroke="rgba(62, 32, 147, 1)" stroke-width="1.5"></path><path d="M640.46 693.59L640.46 693.59" stroke="rgba(62, 32, 147, 1)" stroke-width="1.5"></path><path d="M640.46 693.59L649.24 788.34" stroke="rgba(62, 32, 147, 1)" stroke-width="1.5"></path><path d="M640.46 693.59L559.4 795.58" stroke="rgba(62, 32, 147, 1)" stroke-width="1.5"></path><path d="M640.46 693.59L809.86 675.07" stroke="rgba(62, 32, 147, 1)" stroke-width="1.5"></path><path d="M649.24 788.34L649.24 788.34" stroke="rgba(62, 32, 147, 1)" stroke-width="1.5"></path><path d="M791.81 261.05L791.81 261.05" stroke="rgba(62, 32, 147, 1)" stroke-width="1.5"></path><path d="M791.81 261.05L846.4 399.57" stroke="rgba(62, 32, 147, 1)" stroke-width="1.5"></path><path d="M791.81 261.05L976.75 259.73" stroke="rgba(62, 32, 147, 1)" stroke-width="1.5"></path><path d="M791.81 261.05L942.01 390.06" stroke="rgba(62, 32, 147, 1)" stroke-width="1.5"></path><path d="M791.81 261.05L789.56 509.7" stroke="rgba(62, 32, 147, 1)" stroke-width="1.5"></path><path d="M846.4 399.57L846.4 399.57" stroke="rgba(62, 32, 147, 1)" stroke-width="1.5"></path><path d="M846.4 399.57L942.01 390.06" stroke="rgba(62, 32, 147, 1)" stroke-width="1.5"></path><path d="M846.4 399.57L789.56 509.7" stroke="rgba(62, 32, 147, 1)" stroke-width="1.5"></path><path d="M846.4 399.57L943.19 489.92" stroke="rgba(62, 32, 147, 1)" stroke-width="1.5"></path><path d="M789.56 509.7L789.56 509.7" stroke="rgba(62, 32, 147, 1)" stroke-width="1.5"></path><path d="M789.56 509.7L943.19 489.92" stroke="rgba(62, 32, 147, 1)" stroke-width="1.5"></path><path d="M789.56 509.7L809.86 675.07" stroke="rgba(62, 32, 147, 1)" stroke-width="1.5"></path><path d="M809.86 675.07L809.86 675.07" stroke="rgba(62, 32, 147, 1)" stroke-width="1.5"></path><path d="M809.86 675.07L828.32 817.38" stroke="rgba(62, 32, 147, 1)" stroke-width="1.5"></path><path d="M809.86 675.07L955.08 693.85" stroke="rgba(62, 32, 147, 1)" stroke-width="1.5"></path><path d="M828.32 817.38L828.32 817.38" stroke="rgba(62, 32, 147, 1)" stroke-width="1.5"></path><path d="M828.32 817.38L955.08 693.85" stroke="rgba(62, 32, 147, 1)" stroke-width="1.5"></path><path d="M985.33 -100.17L985.33 -100.17" stroke="rgba(62, 32, 147, 1)" stroke-width="1.5"></path><path d="M985.33 -100.17L964.4 39.36" stroke="rgba(62, 32, 147, 1)" stroke-width="1.5"></path><path d="M985.33 -100.17L1153.72 -53.08" stroke="rgba(62, 32, 147, 1)" stroke-width="1.5"></path><path d="M985.33 -100.17L1155.69 53.27" stroke="rgba(62, 32, 147, 1)" stroke-width="1.5"></path><path d="M985.33 -100.17L1252.75 -92.53" stroke="rgba(62, 32, 147, 1)" stroke-width="1.5"></path><path d="M985.33 -100.17L1269.75 97.38" stroke="rgba(62, 32, 147, 1)" stroke-width="1.5"></path><path d="M985.33 -100.17L976.75 259.73" stroke="rgba(62, 32, 147, 1)" stroke-width="1.5"></path><path d="M964.4 39.36L964.4 39.36" stroke="rgba(62, 32, 147, 1)" stroke-width="1.5"></path><path d="M964.4 39.36L1155.69 53.27" stroke="rgba(62, 32, 147, 1)" stroke-width="1.5"></path><path d="M964.4 39.36L1153.72 -53.08" stroke="rgba(62, 32, 147, 1)" stroke-width="1.5"></path><path d="M964.4 39.36L976.75 259.73" stroke="rgba(62, 32, 147, 1)" stroke-width="1.5"></path><path d="M976.75 259.73L976.75 259.73" stroke="rgba(62, 32, 147, 1)" stroke-width="1.5"></path><path d="M976.75 259.73L942.01 390.06" stroke="rgba(62, 32, 147, 1)" stroke-width="1.5"></path><path d="M976.75 259.73L1136 241.26" stroke="rgba(62, 32, 147, 1)" stroke-width="1.5"></path><path d="M976.75 259.73L1103.54 373.35" stroke="rgba(62, 32, 147, 1)" stroke-width="1.5"></path><path d="M942.01 390.06L942.01 390.06" stroke="rgba(62, 32, 147, 1)" stroke-width="1.5"></path><path d="M942.01 390.06L943.19 489.92" stroke="rgba(62, 32, 147, 1)" stroke-width="1.5"></path><path d="M942.01 390.06L1103.54 373.35" stroke="rgba(62, 32, 147, 1)" stroke-width="1.5"></path><path d="M942.01 390.06L789.56 509.7" stroke="rgba(62, 32, 147, 1)" stroke-width="1.5"></path><path d="M943.19 489.92L943.19 489.92" stroke="rgba(62, 32, 147, 1)" stroke-width="1.5"></path><path d="M955.08 693.85L955.08 693.85" stroke="rgba(62, 32, 147, 1)" stroke-width="1.5"></path><path d="M955.08 693.85L1008.97 805.98" stroke="rgba(62, 32, 147, 1)" stroke-width="1.5"></path><path d="M1008.97 805.98L1008.97 805.98" stroke="rgba(62, 32, 147, 1)" stroke-width="1.5"></path><path d="M1008.97 805.98L1121.19 824.89" stroke="rgba(62, 32, 147, 1)" stroke-width="1.5"></path><path d="M1153.72 -53.08L1153.72 -53.08" stroke="rgba(62, 32, 147, 1)" stroke-width="1.5"></path><path d="M1153.72 -53.08L1155.69 53.27" stroke="rgba(62, 32, 147, 1)" stroke-width="1.5"></path><path d="M1153.72 -53.08L1252.75 -92.53" stroke="rgba(62, 32, 147, 1)" stroke-width="1.5"></path><path d="M1153.72 -53.08L1269.75 97.38" stroke="rgba(62, 32, 147, 1)" stroke-width="1.5"></path><path d="M1153.72 -53.08L1388.93 57.02" stroke="rgba(62, 32, 147, 1)" stroke-width="1.5"></path><path d="M1155.69 53.27L1155.69 53.27" stroke="rgba(62, 32, 147, 1)" stroke-width="1.5"></path><path d="M1155.69 53.27L1269.75 97.38" stroke="rgba(62, 32, 147, 1)" stroke-width="1.5"></path><path d="M1155.69 53.27L1252.75 -92.53" stroke="rgba(62, 32, 147, 1)" stroke-width="1.5"></path><path d="M1155.69 53.27L1136 241.26" stroke="rgba(62, 32, 147, 1)" stroke-width="1.5"></path><path d="M1136 241.26L1136 241.26" stroke="rgba(62, 32, 147, 1)" stroke-width="1.5"></path><path d="M1136 241.26L1103.54 373.35" stroke="rgba(62, 32, 147, 1)" stroke-width="1.5"></path><path d="M1103.54 373.35L1103.54 373.35" stroke="rgba(62, 32, 147, 1)" stroke-width="1.5"></path><path d="M1103.54 373.35L1262.95 368.68" stroke="rgba(62, 32, 147, 1)" stroke-width="1.5"></path><path d="M1149.01 545.68L1149.01 545.68" stroke="rgba(62, 32, 147, 1)" stroke-width="1.5"></path><path d="M1149.01 545.68L1256.56 547.44" stroke="rgba(62, 32, 147, 1)" stroke-width="1.5"></path><path d="M1149.01 545.68L1157.21 663.81" stroke="rgba(62, 32, 147, 1)" stroke-width="1.5"></path><path d="M1157.21 663.81L1157.21 663.81" stroke="rgba(62, 32, 147, 1)" stroke-width="1.5"></path><path d="M1157.21 663.81L1256.56 547.44" stroke="rgba(62, 32, 147, 1)" stroke-width="1.5"></path><path d="M1121.19 824.89L1121.19 824.89" stroke="rgba(62, 32, 147, 1)" stroke-width="1.5"></path><path d="M1121.19 824.89L1283.08 849.52" stroke="rgba(62, 32, 147, 1)" stroke-width="1.5"></path><path d="M1252.75 -92.53L1252.75 -92.53" stroke="rgba(62, 32, 147, 1)" stroke-width="1.5"></path><path d="M1252.75 -92.53L1421.63 -78.45" stroke="rgba(62, 32, 147, 1)" stroke-width="1.5"></path><path d="M1269.75 97.38L1269.75 97.38" stroke="rgba(62, 32, 147, 1)" stroke-width="1.5"></path><path d="M1269.75 97.38L1388.93 57.02" stroke="rgba(62, 32, 147, 1)" stroke-width="1.5"></path><path d="M1262.95 368.68L1262.95 368.68" stroke="rgba(62, 32, 147, 1)" stroke-width="1.5"></path><path d="M1262.95 368.68L1434.64 354.37" stroke="rgba(62, 32, 147, 1)" stroke-width="1.5"></path><path d="M1262.95 368.68L1256.56 547.44" stroke="rgba(62, 32, 147, 1)" stroke-width="1.5"></path><path d="M1256.56 547.44L1256.56 547.44" stroke="rgba(62, 32, 147, 1)" stroke-width="1.5"></path><path d="M1256.56 547.44L1406.59 554.33" stroke="rgba(62, 32, 147, 1)" stroke-width="1.5"></path><path d="M1283.08 849.52L1283.08 849.52" stroke="rgba(62, 32, 147, 1)" stroke-width="1.5"></path><path d="M1283.08 849.52L1449.05 824.04" stroke="rgba(62, 32, 147, 1)" stroke-width="1.5"></path><path d="M1283.08 849.52L1413.95 690.63" stroke="rgba(62, 32, 147, 1)" stroke-width="1.5"></path><path d="M1283.08 849.52L1157.21 663.81" stroke="rgba(62, 32, 147, 1)" stroke-width="1.5"></path><path d="M1283.08 849.52L1008.97 805.98" stroke="rgba(62, 32, 147, 1)" stroke-width="1.5"></path><path d="M1421.63 -78.45L1421.63 -78.45" stroke="rgba(62, 32, 147, 1)" stroke-width="1.5"></path><path d="M1421.63 -78.45L1388.93 57.02" stroke="rgba(62, 32, 147, 1)" stroke-width="1.5"></path><path d="M1421.63 -78.45L1603.99 -91.68" stroke="rgba(62, 32, 147, 1)" stroke-width="1.5"></path><path d="M1388.93 57.02L1388.93 57.02" stroke="rgba(62, 32, 147, 1)" stroke-width="1.5"></path><path d="M1388.93 57.02L1424.58 205.74" stroke="rgba(62, 32, 147, 1)" stroke-width="1.5"></path><path d="M1388.93 57.02L1564.79 96.39" stroke="rgba(62, 32, 147, 1)" stroke-width="1.5"></path><path d="M1424.58 205.74L1424.58 205.74" stroke="rgba(62, 32, 147, 1)" stroke-width="1.5"></path><path d="M1424.58 205.74L1434.64 354.37" stroke="rgba(62, 32, 147, 1)" stroke-width="1.5"></path><path d="M1424.58 205.74L1598.75 233.39" stroke="rgba(62, 32, 147, 1)" stroke-width="1.5"></path><path d="M1434.64 354.37L1434.64 354.37" stroke="rgba(62, 32, 147, 1)" stroke-width="1.5"></path><path d="M1434.64 354.37L1582.09 387.86" stroke="rgba(62, 32, 147, 1)" stroke-width="1.5"></path><path d="M1406.59 554.33L1406.59 554.33" stroke="rgba(62, 32, 147, 1)" stroke-width="1.5"></path><path d="M1406.59 554.33L1413.95 690.63" stroke="rgba(62, 32, 147, 1)" stroke-width="1.5"></path><path d="M1406.59 554.33L1434.64 354.37" stroke="rgba(62, 32, 147, 1)" stroke-width="1.5"></path><path d="M1413.95 690.63L1413.95 690.63" stroke="rgba(62, 32, 147, 1)" stroke-width="1.5"></path><path d="M1413.95 690.63L1449.05 824.04" stroke="rgba(62, 32, 147, 1)" stroke-width="1.5"></path><path d="M1413.95 690.63L1595.39 648.53" stroke="rgba(62, 32, 147, 1)" stroke-width="1.5"></path><path d="M1413.95 690.63L1256.56 547.44" stroke="rgba(62, 32, 147, 1)" stroke-width="1.5"></path><path d="M1449.05 824.04L1449.05 824.04" stroke="rgba(62, 32, 147, 1)" stroke-width="1.5"></path><path d="M1449.05 824.04L1571.39 852.12" stroke="rgba(62, 32, 147, 1)" stroke-width="1.5"></path><path d="M1603.99 -91.68L1603.99 -91.68" stroke="rgba(62, 32, 147, 1)" stroke-width="1.5"></path><path d="M1603.99 -91.68L1564.79 96.39" stroke="rgba(62, 32, 147, 1)" stroke-width="1.5"></path><path d="M1603.99 -91.68L1388.93 57.02" stroke="rgba(62, 32, 147, 1)" stroke-width="1.5"></path><path d="M1603.99 -91.68L1598.75 233.39" stroke="rgba(62, 32, 147, 1)" stroke-width="1.5"></path><path d="M1564.79 96.39L1564.79 96.39" stroke="rgba(62, 32, 147, 1)" stroke-width="1.5"></path><path d="M1564.79 96.39L1598.75 233.39" stroke="rgba(62, 32, 147, 1)" stroke-width="1.5"></path><path d="M1564.79 96.39L1424.58 205.74" stroke="rgba(62, 32, 147, 1)" stroke-width="1.5"></path><path d="M1564.79 96.39L1421.63 -78.45" stroke="rgba(62, 32, 147, 1)" stroke-width="1.5"></path><path d="M1564.79 96.39L1434.64 354.37" stroke="rgba(62, 32, 147, 1)" stroke-width="1.5"></path><path d="M1598.75 233.39L1598.75 233.39" stroke="rgba(62, 32, 147, 1)" stroke-width="1.5"></path><path d="M1598.75 233.39L1582.09 387.86" stroke="rgba(62, 32, 147, 1)" stroke-width="1.5"></path><path d="M1598.75 233.39L1434.64 354.37" stroke="rgba(62, 32, 147, 1)" stroke-width="1.5"></path><path d="M1598.75 233.39L1388.93 57.02" stroke="rgba(62, 32, 147, 1)" stroke-width="1.5"></path><path d="M1582.09 387.86L1582.09 387.86" stroke="rgba(62, 32, 147, 1)" stroke-width="1.5"></path><path d="M1582.09 387.86L1424.58 205.74" stroke="rgba(62, 32, 147, 1)" stroke-width="1.5"></path><path d="M1595.39 648.53L1595.39 648.53" stroke="rgba(62, 32, 147, 1)" stroke-width="1.5"></path><path d="M1595.39 648.53L1571.39 852.12" stroke="rgba(62, 32, 147, 1)" stroke-width="1.5"></path><path d="M1595.39 648.53L1406.59 554.33" stroke="rgba(62, 32, 147, 1)" stroke-width="1.5"></path><path d="M1595.39 648.53L1449.05 824.04" stroke="rgba(62, 32, 147, 1)" stroke-width="1.5"></path><path d="M1571.39 852.12L1571.39 852.12" stroke="rgba(62, 32, 147, 1)" stroke-width="1.5"></path><path d="M1571.39 852.12L1413.95 690.63" stroke="rgba(62, 32, 147, 1)" stroke-width="1.5"></path><path d="M1571.39 852.12L1283.08 849.52" stroke="rgba(62, 32, 147, 1)" stroke-width="1.5"></path><circle r="5" cx="-102.29" cy="545.96" fill="rgba(62, 32, 147, 1)"></circle><circle r="5" cx="-84.42" cy="670.95" fill="rgba(62, 32, 147, 1)"></circle><circle r="5" cx="-101.74" cy="844.41" fill="rgba(62, 32, 147, 1)"></circle><circle r="5" cx="73.15" cy="552.33" fill="rgba(62, 32, 147, 1)"></circle><circle r="5" cx="50.21" cy="698.19" fill="rgba(62, 32, 147, 1)"></circle><circle r="5" cx="41.86" cy="827.14" fill="rgba(62, 32, 147, 1)"></circle><circle r="5" cx="189.25" cy="525.87" fill="rgba(62, 32, 147, 1)"></circle><circle r="5" cx="196.95" cy="823.79" fill="rgba(62, 32, 147, 1)"></circle><circle r="5" cx="363.86" cy="548.39" fill="rgba(62, 32, 147, 1)"></circle><circle r="5" cx="340.12" cy="675.35" fill="rgba(62, 32, 147, 1)"></circle><circle r="5" cx="375.72" cy="850.12" fill="rgba(62, 32, 147, 1)"></circle><circle r="5" cx="546.07" cy="396.44" fill="rgba(62, 32, 147, 1)"></circle><circle r="5" cx="506.82" cy="544.86" fill="rgba(62, 32, 147, 1)"></circle><circle r="5" cx="554.04" cy="685.09" fill="rgba(62, 32, 147, 1)"></circle><circle r="5" cx="559.4" cy="795.58" fill="rgba(62, 32, 147, 1)"></circle><circle r="5" cx="703.68" cy="261.64" fill="rgba(62, 32, 147, 1)"></circle><circle r="5" cx="691.14" cy="403.88" fill="rgba(62, 32, 147, 1)"></circle><circle r="5" cx="709.01" cy="536.04" fill="rgba(62, 32, 147, 1)"></circle><circle r="5" cx="640.46" cy="693.59" fill="rgba(62, 32, 147, 1)"></circle><circle r="5" cx="649.24" cy="788.34" fill="rgba(62, 32, 147, 1)"></circle><circle r="5" cx="791.81" cy="261.05" fill="rgba(62, 32, 147, 1)"></circle><circle r="5" cx="846.4" cy="399.57" fill="rgba(62, 32, 147, 1)"></circle><circle r="5" cx="789.56" cy="509.7" fill="rgba(62, 32, 147, 1)"></circle><circle r="5" cx="809.86" cy="675.07" fill="rgba(62, 32, 147, 1)"></circle><circle r="5" cx="828.32" cy="817.38" fill="rgba(62, 32, 147, 1)"></circle><circle r="5" cx="985.33" cy="-100.17" fill="rgba(62, 32, 147, 1)"></circle><circle r="5" cx="964.4" cy="39.36" fill="rgba(62, 32, 147, 1)"></circle><circle r="5" cx="976.75" cy="259.73" fill="rgba(62, 32, 147, 1)"></circle><circle r="5" cx="942.01" cy="390.06" fill="rgba(62, 32, 147, 1)"></circle><circle r="5" cx="943.19" cy="489.92" fill="rgba(62, 32, 147, 1)"></circle><circle r="5" cx="955.08" cy="693.85" fill="rgba(62, 32, 147, 1)"></circle><circle r="5" cx="1008.97" cy="805.98" fill="rgba(62, 32, 147, 1)"></circle><circle r="5" cx="1153.72" cy="-53.08" fill="rgba(62, 32, 147, 1)"></circle><circle r="5" cx="1155.69" cy="53.27" fill="rgba(62, 32, 147, 1)"></circle><circle r="5" cx="1136" cy="241.26" fill="rgba(62, 32, 147, 1)"></circle><circle r="5" cx="1103.54" cy="373.35" fill="rgba(62, 32, 147, 1)"></circle><circle r="5" cx="1149.01" cy="545.68" fill="rgba(62, 32, 147, 1)"></circle><circle r="5" cx="1157.21" cy="663.81" fill="rgba(62, 32, 147, 1)"></circle><circle r="5" cx="1121.19" cy="824.89" fill="rgba(62, 32, 147, 1)"></circle><circle r="5" cx="1252.75" cy="-92.53" fill="rgba(62, 32, 147, 1)"></circle><circle r="5" cx="1269.75" cy="97.38" fill="rgba(62, 32, 147, 1)"></circle><circle r="5" cx="1262.95" cy="368.68" fill="rgba(62, 32, 147, 1)"></circle><circle r="5" cx="1256.56" cy="547.44" fill="rgba(62, 32, 147, 1)"></circle><circle r="5" cx="1283.08" cy="849.52" fill="rgba(62, 32, 147, 1)"></circle><circle r="5" cx="1421.63" cy="-78.45" fill="rgba(62, 32, 147, 1)"></circle><circle r="5" cx="1388.93" cy="57.02" fill="rgba(62, 32, 147, 1)"></circle><circle r="5" cx="1424.58" cy="205.74" fill="rgba(62, 32, 147, 1)"></circle><circle r="5" cx="1434.64" cy="354.37" fill="rgba(62, 32, 147, 1)"></circle><circle r="5" cx="1406.59" cy="554.33" fill="rgba(62, 32, 147, 1)"></circle><circle r="5" cx="1413.95" cy="690.63" fill="rgba(62, 32, 147, 1)"></circle><circle r="5" cx="1449.05" cy="824.04" fill="rgba(62, 32, 147, 1)"></circle><circle r="5" cx="1603.99" cy="-91.68" fill="rgba(62, 32, 147, 1)"></circle><circle r="5" cx="1564.79" cy="96.39" fill="rgba(62, 32, 147, 1)"></circle><circle r="5" cx="1598.75" cy="233.39" fill="rgba(62, 32, 147, 1)"></circle><circle r="5" cx="1582.09" cy="387.86" fill="rgba(62, 32, 147, 1)"></circle><circle r="5" cx="1595.39" cy="648.53" fill="rgba(62, 32, 147, 1)"></circle><circle r="5" cx="1571.39" cy="852.12" fill="rgba(62, 32, 147, 1)"></circle><path d="M698.85 670.93L698.85 670.93" stroke="hsl(255.70000000000005, 64.2%, 45.6%)" stroke-width="1.5"></path><path d="M698.85 670.93L804.92 677.18" stroke="hsl(255.70000000000005, 64.2%, 45.6%)" stroke-width="1.5"></path><path d="M698.85 670.93L789.86 557.47" stroke="hsl(255.70000000000005, 64.2%, 45.6%)" stroke-width="1.5"></path><path d="M698.85 670.93L689.23 510.19" stroke="hsl(255.70000000000005, 64.2%, 45.6%)" stroke-width="1.5"></path><path d="M698.85 670.93L804.32 800.27" stroke="hsl(255.70000000000005, 64.2%, 45.6%)" stroke-width="1.5"></path><path d="M698.85 670.93L518.11 688.06" stroke="hsl(255.70000000000005, 64.2%, 45.6%)" stroke-width="1.5"></path><path d="M698.85 670.93L534.22 856.21" stroke="hsl(255.70000000000005, 64.2%, 45.6%)" stroke-width="1.5"></path><path d="M957.15 669.37L957.15 669.37" stroke="hsl(255.70000000000005, 64.2%, 45.6%)" stroke-width="1.5"></path><path d="M957.15 669.37L975.15 798.71" stroke="hsl(255.70000000000005, 64.2%, 45.6%)" stroke-width="1.5"></path><path d="M957.15 669.37L1105.54 682.48" stroke="hsl(255.70000000000005, 64.2%, 45.6%)" stroke-width="1.5"></path><path d="M957.15 669.37L804.92 677.18" stroke="hsl(255.70000000000005, 64.2%, 45.6%)" stroke-width="1.5"></path><path d="M957.15 669.37L804.32 800.27" stroke="hsl(255.70000000000005, 64.2%, 45.6%)" stroke-width="1.5"></path><path d="M957.15 669.37L789.86 557.47" stroke="hsl(255.70000000000005, 64.2%, 45.6%)" stroke-width="1.5"></path><path d="M1094.41 351.04L1094.41 351.04" stroke="hsl(255.70000000000005, 64.2%, 45.6%)" stroke-width="1.5"></path><path d="M1094.41 351.04L972.67 395.21" stroke="hsl(255.70000000000005, 64.2%, 45.6%)" stroke-width="1.5"></path><path d="M1094.41 351.04L1095.02 197.79" stroke="hsl(255.70000000000005, 64.2%, 45.6%)" stroke-width="1.5"></path><path d="M1094.41 351.04L1121.65 527.04" stroke="hsl(255.70000000000005, 64.2%, 45.6%)" stroke-width="1.5"></path><path d="M1105.54 682.48L1105.54 682.48" stroke="hsl(255.70000000000005, 64.2%, 45.6%)" stroke-width="1.5"></path><path d="M1105.54 682.48L1121.65 527.04" stroke="hsl(255.70000000000005, 64.2%, 45.6%)" stroke-width="1.5"></path><path d="M1105.54 682.48L1273.09 685.46" stroke="hsl(255.70000000000005, 64.2%, 45.6%)" stroke-width="1.5"></path><path d="M1105.54 682.48L975.15 798.71" stroke="hsl(255.70000000000005, 64.2%, 45.6%)" stroke-width="1.5"></path><path d="M1105.54 682.48L1160.02 849.04" stroke="hsl(255.70000000000005, 64.2%, 45.6%)" stroke-width="1.5"></path><path d="M1105.54 682.48L1266.17 815.04" stroke="hsl(255.70000000000005, 64.2%, 45.6%)" stroke-width="1.5"></path><path d="M1404.83 502.73L1404.83 502.73" stroke="hsl(255.70000000000005, 64.2%, 45.6%)" stroke-width="1.5"></path><path d="M1404.83 502.73L1312.09 491.59" stroke="hsl(255.70000000000005, 64.2%, 45.6%)" stroke-width="1.5"></path><path d="M1404.83 502.73L1540.98 503.22" stroke="hsl(255.70000000000005, 64.2%, 45.6%)" stroke-width="1.5"></path><path d="M1404.83 502.73L1403.57 347.57" stroke="hsl(255.70000000000005, 64.2%, 45.6%)" stroke-width="1.5"></path><path d="M1404.83 502.73L1304 362.66" stroke="hsl(255.70000000000005, 64.2%, 45.6%)" stroke-width="1.5"></path><path d="M1404.83 502.73L1426.29 685.22" stroke="hsl(255.70000000000005, 64.2%, 45.6%)" stroke-width="1.5"></path><path d="M-86.26 672.97L-86.26 672.97" stroke="hsl(255.70000000000005, 64.2%, 45.6%)" stroke-width="1.5"></path><path d="M-86.26 672.97L-108.41 815.83" stroke="hsl(255.70000000000005, 64.2%, 45.6%)" stroke-width="1.5"></path><path d="M-86.26 672.97L103.56 695.63" stroke="hsl(255.70000000000005, 64.2%, 45.6%)" stroke-width="1.5"></path><path d="M-108.41 815.83L-108.41 815.83" stroke="hsl(255.70000000000005, 64.2%, 45.6%)" stroke-width="1.5"></path><path d="M-108.41 815.83L103.56 695.63" stroke="hsl(255.70000000000005, 64.2%, 45.6%)" stroke-width="1.5"></path><path d="M103.56 695.63L103.56 695.63" stroke="hsl(255.70000000000005, 64.2%, 45.6%)" stroke-width="1.5"></path><path d="M103.56 695.63L245.29 641.04" stroke="hsl(255.70000000000005, 64.2%, 45.6%)" stroke-width="1.5"></path><path d="M103.56 695.63L210.54 860.38" stroke="hsl(255.70000000000005, 64.2%, 45.6%)" stroke-width="1.5"></path><path d="M245.29 641.04L245.29 641.04" stroke="hsl(255.70000000000005, 64.2%, 45.6%)" stroke-width="1.5"></path><path d="M245.29 641.04L367.44 700.53" stroke="hsl(255.70000000000005, 64.2%, 45.6%)" stroke-width="1.5"></path><path d="M245.29 641.04L210.54 860.38" stroke="hsl(255.70000000000005, 64.2%, 45.6%)" stroke-width="1.5"></path><path d="M210.54 860.38L210.54 860.38" stroke="hsl(255.70000000000005, 64.2%, 45.6%)" stroke-width="1.5"></path><path d="M210.54 860.38L366.82 841.96" stroke="hsl(255.70000000000005, 64.2%, 45.6%)" stroke-width="1.5"></path><path d="M367.44 700.53L367.44 700.53" stroke="hsl(255.70000000000005, 64.2%, 45.6%)" stroke-width="1.5"></path><path d="M367.44 700.53L366.82 841.96" stroke="hsl(255.70000000000005, 64.2%, 45.6%)" stroke-width="1.5"></path><path d="M367.44 700.53L518.11 688.06" stroke="hsl(255.70000000000005, 64.2%, 45.6%)" stroke-width="1.5"></path><path d="M366.82 841.96L366.82 841.96" stroke="hsl(255.70000000000005, 64.2%, 45.6%)" stroke-width="1.5"></path><path d="M366.82 841.96L534.22 856.21" stroke="hsl(255.70000000000005, 64.2%, 45.6%)" stroke-width="1.5"></path><path d="M366.82 841.96L518.11 688.06" stroke="hsl(255.70000000000005, 64.2%, 45.6%)" stroke-width="1.5"></path><path d="M366.82 841.96L245.29 641.04" stroke="hsl(255.70000000000005, 64.2%, 45.6%)" stroke-width="1.5"></path><path d="M366.82 841.96L103.56 695.63" stroke="hsl(255.70000000000005, 64.2%, 45.6%)" stroke-width="1.5"></path><path d="M518.11 688.06L518.11 688.06" stroke="hsl(255.70000000000005, 64.2%, 45.6%)" stroke-width="1.5"></path><path d="M518.11 688.06L534.22 856.21" stroke="hsl(255.70000000000005, 64.2%, 45.6%)" stroke-width="1.5"></path><path d="M534.22 856.21L534.22 856.21" stroke="hsl(255.70000000000005, 64.2%, 45.6%)" stroke-width="1.5"></path><path d="M689.23 510.19L689.23 510.19" stroke="hsl(255.70000000000005, 64.2%, 45.6%)" stroke-width="1.5"></path><path d="M689.23 510.19L789.86 557.47" stroke="hsl(255.70000000000005, 64.2%, 45.6%)" stroke-width="1.5"></path><path d="M689.23 510.19L804.92 677.18" stroke="hsl(255.70000000000005, 64.2%, 45.6%)" stroke-width="1.5"></path><path d="M689.23 510.19L518.11 688.06" stroke="hsl(255.70000000000005, 64.2%, 45.6%)" stroke-width="1.5"></path><path d="M689.23 510.19L972.67 395.21" stroke="hsl(255.70000000000005, 64.2%, 45.6%)" stroke-width="1.5"></path><path d="M789.86 557.47L789.86 557.47" stroke="hsl(255.70000000000005, 64.2%, 45.6%)" stroke-width="1.5"></path><path d="M789.86 557.47L804.92 677.18" stroke="hsl(255.70000000000005, 64.2%, 45.6%)" stroke-width="1.5"></path><path d="M804.92 677.18L804.92 677.18" stroke="hsl(255.70000000000005, 64.2%, 45.6%)" stroke-width="1.5"></path><path d="M804.92 677.18L804.32 800.27" stroke="hsl(255.70000000000005, 64.2%, 45.6%)" stroke-width="1.5"></path><path d="M804.32 800.27L804.32 800.27" stroke="hsl(255.70000000000005, 64.2%, 45.6%)" stroke-width="1.5"></path><path d="M804.32 800.27L975.15 798.71" stroke="hsl(255.70000000000005, 64.2%, 45.6%)" stroke-width="1.5"></path><path d="M804.32 800.27L789.86 557.47" stroke="hsl(255.70000000000005, 64.2%, 45.6%)" stroke-width="1.5"></path><path d="M804.32 800.27L534.22 856.21" stroke="hsl(255.70000000000005, 64.2%, 45.6%)" stroke-width="1.5"></path><path d="M972.67 395.21L972.67 395.21" stroke="hsl(255.70000000000005, 64.2%, 45.6%)" stroke-width="1.5"></path><path d="M972.67 395.21L1121.65 527.04" stroke="hsl(255.70000000000005, 64.2%, 45.6%)" stroke-width="1.5"></path><path d="M972.67 395.21L1095.02 197.79" stroke="hsl(255.70000000000005, 64.2%, 45.6%)" stroke-width="1.5"></path><path d="M972.67 395.21L789.86 557.47" stroke="hsl(255.70000000000005, 64.2%, 45.6%)" stroke-width="1.5"></path><path d="M975.15 798.71L975.15 798.71" stroke="hsl(255.70000000000005, 64.2%, 45.6%)" stroke-width="1.5"></path><path d="M975.15 798.71L1160.02 849.04" stroke="hsl(255.70000000000005, 64.2%, 45.6%)" stroke-width="1.5"></path><path d="M975.15 798.71L804.92 677.18" stroke="hsl(255.70000000000005, 64.2%, 45.6%)" stroke-width="1.5"></path><path d="M975.15 798.71L1266.17 815.04" stroke="hsl(255.70000000000005, 64.2%, 45.6%)" stroke-width="1.5"></path><path d="M1095.02 197.79L1095.02 197.79" stroke="hsl(255.70000000000005, 64.2%, 45.6%)" stroke-width="1.5"></path><path d="M1095.02 197.79L1274.52 223.99" stroke="hsl(255.70000000000005, 64.2%, 45.6%)" stroke-width="1.5"></path><path d="M1095.02 197.79L1279.82 40.04" stroke="hsl(255.70000000000005, 64.2%, 45.6%)" stroke-width="1.5"></path><path d="M1121.65 527.04L1121.65 527.04" stroke="hsl(255.70000000000005, 64.2%, 45.6%)" stroke-width="1.5"></path><path d="M1121.65 527.04L1312.09 491.59" stroke="hsl(255.70000000000005, 64.2%, 45.6%)" stroke-width="1.5"></path><path d="M1121.65 527.04L957.15 669.37" stroke="hsl(255.70000000000005, 64.2%, 45.6%)" stroke-width="1.5"></path><path d="M1160.02 849.04L1160.02 849.04" stroke="hsl(255.70000000000005, 64.2%, 45.6%)" stroke-width="1.5"></path><path d="M1160.02 849.04L1266.17 815.04" stroke="hsl(255.70000000000005, 64.2%, 45.6%)" stroke-width="1.5"></path><path d="M1160.02 849.04L1273.09 685.46" stroke="hsl(255.70000000000005, 64.2%, 45.6%)" stroke-width="1.5"></path><path d="M1244.32 -38.94L1244.32 -38.94" stroke="hsl(255.70000000000005, 64.2%, 45.6%)" stroke-width="1.5"></path><path d="M1244.32 -38.94L1279.82 40.04" stroke="hsl(255.70000000000005, 64.2%, 45.6%)" stroke-width="1.5"></path><path d="M1244.32 -38.94L1405.06 -103.45" stroke="hsl(255.70000000000005, 64.2%, 45.6%)" stroke-width="1.5"></path><path d="M1244.32 -38.94L1274.52 223.99" stroke="hsl(255.70000000000005, 64.2%, 45.6%)" stroke-width="1.5"></path><path d="M1244.32 -38.94L1095.02 197.79" stroke="hsl(255.70000000000005, 64.2%, 45.6%)" stroke-width="1.5"></path><path d="M1244.32 -38.94L1447.21 214.35" stroke="hsl(255.70000000000005, 64.2%, 45.6%)" stroke-width="1.5"></path><path d="M1279.82 40.04L1279.82 40.04" stroke="hsl(255.70000000000005, 64.2%, 45.6%)" stroke-width="1.5"></path><path d="M1279.82 40.04L1274.52 223.99" stroke="hsl(255.70000000000005, 64.2%, 45.6%)" stroke-width="1.5"></path><path d="M1279.82 40.04L1405.06 -103.45" stroke="hsl(255.70000000000005, 64.2%, 45.6%)" stroke-width="1.5"></path><path d="M1274.52 223.99L1274.52 223.99" stroke="hsl(255.70000000000005, 64.2%, 45.6%)" stroke-width="1.5"></path><path d="M1274.52 223.99L1304 362.66" stroke="hsl(255.70000000000005, 64.2%, 45.6%)" stroke-width="1.5"></path><path d="M1274.52 223.99L1447.21 214.35" stroke="hsl(255.70000000000005, 64.2%, 45.6%)" stroke-width="1.5"></path><path d="M1304 362.66L1304 362.66" stroke="hsl(255.70000000000005, 64.2%, 45.6%)" stroke-width="1.5"></path><path d="M1304 362.66L1403.57 347.57" stroke="hsl(255.70000000000005, 64.2%, 45.6%)" stroke-width="1.5"></path><path d="M1304 362.66L1312.09 491.59" stroke="hsl(255.70000000000005, 64.2%, 45.6%)" stroke-width="1.5"></path><path d="M1312.09 491.59L1312.09 491.59" stroke="hsl(255.70000000000005, 64.2%, 45.6%)" stroke-width="1.5"></path><path d="M1312.09 491.59L1403.57 347.57" stroke="hsl(255.70000000000005, 64.2%, 45.6%)" stroke-width="1.5"></path><path d="M1312.09 491.59L1273.09 685.46" stroke="hsl(255.70000000000005, 64.2%, 45.6%)" stroke-width="1.5"></path><path d="M1273.09 685.46L1273.09 685.46" stroke="hsl(255.70000000000005, 64.2%, 45.6%)" stroke-width="1.5"></path><path d="M1273.09 685.46L1266.17 815.04" stroke="hsl(255.70000000000005, 64.2%, 45.6%)" stroke-width="1.5"></path><path d="M1266.17 815.04L1266.17 815.04" stroke="hsl(255.70000000000005, 64.2%, 45.6%)" stroke-width="1.5"></path><path d="M1405.06 -103.45L1405.06 -103.45" stroke="hsl(255.70000000000005, 64.2%, 45.6%)" stroke-width="1.5"></path><path d="M1405.06 -103.45L1598.41 -63.99" stroke="hsl(255.70000000000005, 64.2%, 45.6%)" stroke-width="1.5"></path><path d="M1405.06 -103.45L1570.15 71.42" stroke="hsl(255.70000000000005, 64.2%, 45.6%)" stroke-width="1.5"></path><path d="M1447.21 214.35L1447.21 214.35" stroke="hsl(255.70000000000005, 64.2%, 45.6%)" stroke-width="1.5"></path><path d="M1447.21 214.35L1560.97 223" stroke="hsl(255.70000000000005, 64.2%, 45.6%)" stroke-width="1.5"></path><path d="M1447.21 214.35L1403.57 347.57" stroke="hsl(255.70000000000005, 64.2%, 45.6%)" stroke-width="1.5"></path><path d="M1447.21 214.35L1570.15 71.42" stroke="hsl(255.70000000000005, 64.2%, 45.6%)" stroke-width="1.5"></path><path d="M1403.57 347.57L1403.57 347.57" stroke="hsl(255.70000000000005, 64.2%, 45.6%)" stroke-width="1.5"></path><path d="M1426.29 685.22L1426.29 685.22" stroke="hsl(255.70000000000005, 64.2%, 45.6%)" stroke-width="1.5"></path><path d="M1426.29 685.22L1413.25 798.13" stroke="hsl(255.70000000000005, 64.2%, 45.6%)" stroke-width="1.5"></path><path d="M1426.29 685.22L1273.09 685.46" stroke="hsl(255.70000000000005, 64.2%, 45.6%)" stroke-width="1.5"></path><path d="M1426.29 685.22L1578.07 663.69" stroke="hsl(255.70000000000005, 64.2%, 45.6%)" stroke-width="1.5"></path><path d="M1426.29 685.22L1266.17 815.04" stroke="hsl(255.70000000000005, 64.2%, 45.6%)" stroke-width="1.5"></path><path d="M1426.29 685.22L1540.98 503.22" stroke="hsl(255.70000000000005, 64.2%, 45.6%)" stroke-width="1.5"></path><path d="M1413.25 798.13L1413.25 798.13" stroke="hsl(255.70000000000005, 64.2%, 45.6%)" stroke-width="1.5"></path><path d="M1413.25 798.13L1266.17 815.04" stroke="hsl(255.70000000000005, 64.2%, 45.6%)" stroke-width="1.5"></path><path d="M1413.25 798.13L1273.09 685.46" stroke="hsl(255.70000000000005, 64.2%, 45.6%)" stroke-width="1.5"></path><path d="M1413.25 798.13L1592.43 828.25" stroke="hsl(255.70000000000005, 64.2%, 45.6%)" stroke-width="1.5"></path><path d="M1598.41 -63.99L1598.41 -63.99" stroke="hsl(255.70000000000005, 64.2%, 45.6%)" stroke-width="1.5"></path><path d="M1598.41 -63.99L1570.15 71.42" stroke="hsl(255.70000000000005, 64.2%, 45.6%)" stroke-width="1.5"></path><path d="M1570.15 71.42L1570.15 71.42" stroke="hsl(255.70000000000005, 64.2%, 45.6%)" stroke-width="1.5"></path><path d="M1570.15 71.42L1560.97 223" stroke="hsl(255.70000000000005, 64.2%, 45.6%)" stroke-width="1.5"></path><path d="M1560.97 223L1560.97 223" stroke="hsl(255.70000000000005, 64.2%, 45.6%)" stroke-width="1.5"></path><path d="M1560.97 223L1403.57 347.57" stroke="hsl(255.70000000000005, 64.2%, 45.6%)" stroke-width="1.5"></path><path d="M1560.97 223L1540.98 503.22" stroke="hsl(255.70000000000005, 64.2%, 45.6%)" stroke-width="1.5"></path><path d="M1560.97 223L1274.52 223.99" stroke="hsl(255.70000000000005, 64.2%, 45.6%)" stroke-width="1.5"></path><path d="M1540.98 503.22L1540.98 503.22" stroke="hsl(255.70000000000005, 64.2%, 45.6%)" stroke-width="1.5"></path><path d="M1540.98 503.22L1578.07 663.69" stroke="hsl(255.70000000000005, 64.2%, 45.6%)" stroke-width="1.5"></path><path d="M1540.98 503.22L1403.57 347.57" stroke="hsl(255.70000000000005, 64.2%, 45.6%)" stroke-width="1.5"></path><path d="M1540.98 503.22L1312.09 491.59" stroke="hsl(255.70000000000005, 64.2%, 45.6%)" stroke-width="1.5"></path><path d="M1578.07 663.69L1578.07 663.69" stroke="hsl(255.70000000000005, 64.2%, 45.6%)" stroke-width="1.5"></path><path d="M1592.43 828.25L1592.43 828.25" stroke="hsl(255.70000000000005, 64.2%, 45.6%)" stroke-width="1.5"></path><path d="M1592.43 828.25L1578.07 663.69" stroke="hsl(255.70000000000005, 64.2%, 45.6%)" stroke-width="1.5"></path><path d="M1592.43 828.25L1426.29 685.22" stroke="hsl(255.70000000000005, 64.2%, 45.6%)" stroke-width="1.5"></path><path d="M1592.43 828.25L1266.17 815.04" stroke="hsl(255.70000000000005, 64.2%, 45.6%)" stroke-width="1.5"></path><path d="M1592.43 828.25L1540.98 503.22" stroke="hsl(255.70000000000005, 64.2%, 45.6%)" stroke-width="1.5"></path><path d="M1592.43 828.25L1273.09 685.46" stroke="hsl(255.70000000000005, 64.2%, 45.6%)" stroke-width="1.5"></path><circle r="25" cx="698.85" cy="670.93" fill="url(&quot;#SvgjsRadialGradient1011&quot;)"></circle><circle r="25" cx="957.15" cy="669.37" fill="url(&quot;#SvgjsRadialGradient1011&quot;)"></circle><circle r="25" cx="1094.41" cy="351.04" fill="url(&quot;#SvgjsRadialGradient1011&quot;)"></circle><circle r="25" cx="1105.54" cy="682.48" fill="url(&quot;#SvgjsRadialGradient1011&quot;)"></circle><circle r="25" cx="1404.83" cy="502.73" fill="url(&quot;#SvgjsRadialGradient1011&quot;)"></circle><circle r="5" cx="-86.26" cy="672.97" fill="#9f90c9"></circle><circle r="5" cx="-108.41" cy="815.83" fill="#9f90c9"></circle><circle r="5" cx="103.56" cy="695.63" fill="#9f90c9"></circle><circle r="5" cx="245.29" cy="641.04" fill="#9f90c9"></circle><circle r="5" cx="210.54" cy="860.38" fill="#9f90c9"></circle><circle r="5" cx="367.44" cy="700.53" fill="#9f90c9"></circle><circle r="5" cx="366.82" cy="841.96" fill="#9f90c9"></circle><circle r="5" cx="518.11" cy="688.06" fill="#9f90c9"></circle><circle r="5" cx="534.22" cy="856.21" fill="#9f90c9"></circle><circle r="5" cx="689.23" cy="510.19" fill="#9f90c9"></circle><circle r="5" cx="789.86" cy="557.47" fill="#9f90c9"></circle><circle r="5" cx="804.92" cy="677.18" fill="#9f90c9"></circle><circle r="5" cx="804.32" cy="800.27" fill="#9f90c9"></circle><circle r="5" cx="972.67" cy="395.21" fill="#9f90c9"></circle><circle r="5" cx="975.15" cy="798.71" fill="#9f90c9"></circle><circle r="5" cx="1095.02" cy="197.79" fill="#9f90c9"></circle><circle r="5" cx="1121.65" cy="527.04" fill="#9f90c9"></circle><circle r="5" cx="1160.02" cy="849.04" fill="#9f90c9"></circle><circle r="5" cx="1244.32" cy="-38.94" fill="#9f90c9"></circle><circle r="5" cx="1279.82" cy="40.04" fill="#9f90c9"></circle><circle r="5" cx="1274.52" cy="223.99" fill="#9f90c9"></circle><circle r="5" cx="1304" cy="362.66" fill="#9f90c9"></circle><circle r="5" cx="1312.09" cy="491.59" fill="#9f90c9"></circle><circle r="5" cx="1273.09" cy="685.46" fill="#9f90c9"></circle><circle r="5" cx="1266.17" cy="815.04" fill="#9f90c9"></circle><circle r="5" cx="1405.06" cy="-103.45" fill="#9f90c9"></circle><circle r="5" cx="1447.21" cy="214.35" fill="#9f90c9"></circle><circle r="5" cx="1403.57" cy="347.57" fill="#9f90c9"></circle><circle r="5" cx="1426.29" cy="685.22" fill="#9f90c9"></circle><circle r="5" cx="1413.25" cy="798.13" fill="#9f90c9"></circle><circle r="5" cx="1598.41" cy="-63.99" fill="#9f90c9"></circle><circle r="5" cx="1570.15" cy="71.42" fill="#9f90c9"></circle><circle r="5" cx="1560.97" cy="223" fill="#9f90c9"></circle><circle r="5" cx="1540.98" cy="503.22" fill="#9f90c9"></circle><circle r="5" cx="1578.07" cy="663.69" fill="#9f90c9"></circle><circle r="5" cx="1592.43" cy="828.25" fill="#9f90c9"></circle></g><defs><mask id="SvgjsMask1010"><rect width="1440" height="750" fill="#ffffff"></rect></mask><radialGradient id="SvgjsRadialGradient1011"><stop stop-color="#ffffff" offset="0.1"></stop><stop stop-color="rgba(62, 32, 147, 1)" offset="0.2"></stop><stop stop-color="rgba(62, 32, 147, 0)" offset="1"></stop></radialGradient></defs></svg>