<svg xmlns="http://www.w3.org/2000/svg" version="1.1" xmlns:xlink="http://www.w3.org/1999/xlink" xmlns:svgjs="http://svgjs.com/svgjs" width="1600" height="560" preserveAspectRatio="none" viewBox="0 0 1600 560"><g mask="url(&quot;#SvgjsMask9235&quot;)" fill="none"><rect width="1600" height="560" x="0" y="0" fill="rgba(26, 3, 105, 1)"></rect><use xlink:href="#SvgjsSymbol9242" x="0" y="0"></use><use xlink:href="#SvgjsSymbol9242" x="720" y="0"></use><use xlink:href="#SvgjsSymbol9242" x="1440" y="0"></use></g><defs><mask id="SvgjsMask9235"><rect width="1600" height="560" fill="#ffffff"></rect></mask><path d="M-1 0 a1 1 0 1 0 2 0 a1 1 0 1 0 -2 0z" id="SvgjsPath9240"></path><path d="M-3 0 a3 3 0 1 0 6 0 a3 3 0 1 0 -6 0z" id="SvgjsPath9239"></path><path d="M-5 0 a5 5 0 1 0 10 0 a5 5 0 1 0 -10 0z" id="SvgjsPath9236"></path><path d="M2 -2 L-2 2z" id="SvgjsPath9238"></path><path d="M6 -6 L-6 6z" id="SvgjsPath9237"></path><path d="M30 -30 L-30 30z" id="SvgjsPath9241"></path></defs><symbol id="SvgjsSymbol9242"><use xlink:href="#SvgjsPath9236" x="30" y="30" stroke="rgba(113, 3, 171, 1)"></use><use xlink:href="#SvgjsPath9237" x="30" y="90" stroke="rgba(113, 3, 171, 1)"></use><use xlink:href="#SvgjsPath9237" x="30" y="150" stroke="rgba(113, 3, 171, 1)"></use><use xlink:href="#SvgjsPath9236" x="30" y="210" stroke="rgba(113, 3, 171, 1)"></use><use xlink:href="#SvgjsPath9236" x="30" y="270" stroke="rgba(113, 3, 171, 1)"></use><use xlink:href="#SvgjsPath9237" x="30" y="330" stroke="rgba(113, 3, 171, 1)"></use><use xlink:href="#SvgjsPath9237" x="30" y="390" stroke="rgba(113, 3, 171, 1)"></use><use xlink:href="#SvgjsPath9237" x="30" y="450" stroke="rgba(113, 3, 171, 1)"></use><use xlink:href="#SvgjsPath9238" x="30" y="510" stroke="rgba(113, 3, 171, 1)"></use><use xlink:href="#SvgjsPath9236" x="30" y="570" stroke="rgba(113, 3, 171, 1)"></use><use xlink:href="#SvgjsPath9236" x="90" y="30" stroke="rgba(113, 3, 171, 1)"></use><use xlink:href="#SvgjsPath9238" x="90" y="90" stroke="rgba(113, 3, 171, 1)"></use><use xlink:href="#SvgjsPath9237" x="90" y="150" stroke="rgba(113, 3, 171, 1)"></use><use xlink:href="#SvgjsPath9238" x="90" y="210" stroke="rgba(113, 3, 171, 1)"></use><use xlink:href="#SvgjsPath9236" x="90" y="270" stroke="rgba(113, 3, 171, 1)"></use><use xlink:href="#SvgjsPath9239" x="90" y="330" stroke="rgba(113, 3, 171, 1)"></use><use xlink:href="#SvgjsPath9240" x="90" y="390" stroke="rgba(113, 3, 171, 1)"></use><use xlink:href="#SvgjsPath9238" x="90" y="450" stroke="rgba(113, 3, 171, 1)"></use><use xlink:href="#SvgjsPath9240" x="90" y="510" stroke="rgba(113, 3, 171, 1)"></use><use xlink:href="#SvgjsPath9239" x="90" y="570" stroke="rgba(113, 3, 171, 1)"></use><use xlink:href="#SvgjsPath9238" x="150" y="30" stroke="rgba(113, 3, 171, 1)"></use><use xlink:href="#SvgjsPath9238" x="150" y="90" stroke="rgba(113, 3, 171, 1)"></use><use xlink:href="#SvgjsPath9239" x="150" y="150" stroke="rgba(113, 3, 171, 1)"></use><use xlink:href="#SvgjsPath9237" x="150" y="210" stroke="rgba(113, 3, 171, 1)"></use><use xlink:href="#SvgjsPath9239" x="150" y="270" stroke="rgba(113, 3, 171, 1)"></use><use xlink:href="#SvgjsPath9240" x="150" y="330" stroke="rgba(113, 3, 171, 1)"></use><use xlink:href="#SvgjsPath9236" x="150" y="390" stroke="rgba(113, 3, 171, 1)"></use><use xlink:href="#SvgjsPath9241" x="150" y="450" stroke="rgba(113, 3, 171, 1)" stroke-width="3"></use><use xlink:href="#SvgjsPath9236" x="150" y="510" stroke="rgba(113, 3, 171, 1)"></use><use xlink:href="#SvgjsPath9241" x="150" y="570" stroke="rgba(113, 3, 171, 1)" stroke-width="3"></use><use xlink:href="#SvgjsPath9240" x="210" y="30" stroke="rgba(113, 3, 171, 1)"></use><use xlink:href="#SvgjsPath9238" x="210" y="90" stroke="rgba(113, 3, 171, 1)"></use><use xlink:href="#SvgjsPath9238" x="210" y="150" stroke="rgba(113, 3, 171, 1)"></use><use xlink:href="#SvgjsPath9239" x="210" y="210" stroke="rgba(113, 3, 171, 1)"></use><use xlink:href="#SvgjsPath9237" x="210" y="270" stroke="rgba(113, 3, 171, 1)"></use><use xlink:href="#SvgjsPath9238" x="210" y="330" stroke="rgba(113, 3, 171, 1)"></use><use xlink:href="#SvgjsPath9237" x="210" y="390" stroke="rgba(113, 3, 171, 1)"></use><use xlink:href="#SvgjsPath9239" x="210" y="450" stroke="rgba(113, 3, 171, 1)"></use><use xlink:href="#SvgjsPath9237" x="210" y="510" stroke="rgba(113, 3, 171, 1)"></use><use xlink:href="#SvgjsPath9237" x="210" y="570" stroke="rgba(113, 3, 171, 1)"></use><use xlink:href="#SvgjsPath9237" x="270" y="30" stroke="rgba(113, 3, 171, 1)"></use><use xlink:href="#SvgjsPath9238" x="270" y="90" stroke="rgba(113, 3, 171, 1)"></use><use xlink:href="#SvgjsPath9240" x="270" y="150" stroke="rgba(113, 3, 171, 1)"></use><use xlink:href="#SvgjsPath9236" x="270" y="210" stroke="rgba(113, 3, 171, 1)"></use><use xlink:href="#SvgjsPath9237" x="270" y="270" stroke="rgba(113, 3, 171, 1)"></use><use xlink:href="#SvgjsPath9236" x="270" y="330" stroke="rgba(113, 3, 171, 1)"></use><use xlink:href="#SvgjsPath9236" x="270" y="390" stroke="rgba(113, 3, 171, 1)"></use><use xlink:href="#SvgjsPath9240" x="270" y="450" stroke="rgba(113, 3, 171, 1)"></use><use xlink:href="#SvgjsPath9236" x="270" y="510" stroke="rgba(113, 3, 171, 1)"></use><use xlink:href="#SvgjsPath9237" x="270" y="570" stroke="rgba(113, 3, 171, 1)"></use><use xlink:href="#SvgjsPath9236" x="330" y="30" stroke="rgba(113, 3, 171, 1)"></use><use xlink:href="#SvgjsPath9239" x="330" y="90" stroke="rgba(113, 3, 171, 1)"></use><use xlink:href="#SvgjsPath9237" x="330" y="150" stroke="rgba(113, 3, 171, 1)"></use><use xlink:href="#SvgjsPath9241" x="330" y="210" stroke="rgba(113, 3, 171, 1)" stroke-width="3"></use><use xlink:href="#SvgjsPath9237" x="330" y="270" stroke="rgba(113, 3, 171, 1)"></use><use xlink:href="#SvgjsPath9241" x="330" y="330" stroke="rgba(113, 3, 171, 1)" stroke-width="3"></use><use xlink:href="#SvgjsPath9238" x="330" y="390" stroke="rgba(113, 3, 171, 1)"></use><use xlink:href="#SvgjsPath9236" x="330" y="450" stroke="rgba(113, 3, 171, 1)"></use><use xlink:href="#SvgjsPath9240" x="330" y="510" stroke="rgba(113, 3, 171, 1)"></use><use xlink:href="#SvgjsPath9239" x="330" y="570" stroke="rgba(113, 3, 171, 1)"></use><use xlink:href="#SvgjsPath9239" x="390" y="30" stroke="rgba(113, 3, 171, 1)"></use><use xlink:href="#SvgjsPath9241" x="390" y="90" stroke="rgba(113, 3, 171, 1)" stroke-width="3"></use><use xlink:href="#SvgjsPath9238" x="390" y="150" stroke="rgba(113, 3, 171, 1)"></use><use xlink:href="#SvgjsPath9237" x="390" y="210" stroke="rgba(113, 3, 171, 1)"></use><use xlink:href="#SvgjsPath9239" x="390" y="270" stroke="rgba(113, 3, 171, 1)"></use><use xlink:href="#SvgjsPath9237" x="390" y="330" stroke="rgba(113, 3, 171, 1)"></use><use xlink:href="#SvgjsPath9238" x="390" y="390" stroke="rgba(113, 3, 171, 1)"></use><use xlink:href="#SvgjsPath9238" x="390" y="450" stroke="rgba(113, 3, 171, 1)"></use><use xlink:href="#SvgjsPath9239" x="390" y="510" stroke="rgba(113, 3, 171, 1)"></use><use xlink:href="#SvgjsPath9237" x="390" y="570" stroke="rgba(113, 3, 171, 1)"></use><use xlink:href="#SvgjsPath9236" x="450" y="30" stroke="rgba(113, 3, 171, 1)"></use><use xlink:href="#SvgjsPath9239" x="450" y="90" stroke="rgba(113, 3, 171, 1)"></use><use xlink:href="#SvgjsPath9239" x="450" y="150" stroke="rgba(113, 3, 171, 1)"></use><use xlink:href="#SvgjsPath9237" x="450" y="210" stroke="rgba(113, 3, 171, 1)"></use><use xlink:href="#SvgjsPath9237" x="450" y="270" stroke="rgba(113, 3, 171, 1)"></use><use xlink:href="#SvgjsPath9237" x="450" y="330" stroke="rgba(113, 3, 171, 1)"></use><use xlink:href="#SvgjsPath9237" x="450" y="390" stroke="rgba(113, 3, 171, 1)"></use><use xlink:href="#SvgjsPath9239" x="450" y="450" stroke="rgba(113, 3, 171, 1)"></use><use xlink:href="#SvgjsPath9238" x="450" y="510" stroke="rgba(113, 3, 171, 1)"></use><use xlink:href="#SvgjsPath9236" x="450" y="570" stroke="rgba(113, 3, 171, 1)"></use><use xlink:href="#SvgjsPath9240" x="510" y="30" stroke="rgba(113, 3, 171, 1)"></use><use xlink:href="#SvgjsPath9236" x="510" y="90" stroke="rgba(113, 3, 171, 1)"></use><use xlink:href="#SvgjsPath9240" x="510" y="150" stroke="rgba(113, 3, 171, 1)"></use><use xlink:href="#SvgjsPath9236" x="510" y="210" stroke="rgba(113, 3, 171, 1)"></use><use xlink:href="#SvgjsPath9236" x="510" y="270" stroke="rgba(113, 3, 171, 1)"></use><use xlink:href="#SvgjsPath9236" x="510" y="330" stroke="rgba(113, 3, 171, 1)"></use><use xlink:href="#SvgjsPath9236" x="510" y="390" stroke="rgba(113, 3, 171, 1)"></use><use xlink:href="#SvgjsPath9240" x="510" y="450" stroke="rgba(113, 3, 171, 1)"></use><use xlink:href="#SvgjsPath9236" x="510" y="510" stroke="rgba(113, 3, 171, 1)"></use><use xlink:href="#SvgjsPath9237" x="510" y="570" stroke="rgba(113, 3, 171, 1)"></use><use xlink:href="#SvgjsPath9237" x="570" y="30" stroke="rgba(113, 3, 171, 1)"></use><use xlink:href="#SvgjsPath9237" x="570" y="90" stroke="rgba(113, 3, 171, 1)"></use><use xlink:href="#SvgjsPath9238" x="570" y="150" stroke="rgba(113, 3, 171, 1)"></use><use xlink:href="#SvgjsPath9236" x="570" y="210" stroke="rgba(113, 3, 171, 1)"></use><use xlink:href="#SvgjsPath9236" x="570" y="270" stroke="rgba(113, 3, 171, 1)"></use><use xlink:href="#SvgjsPath9237" x="570" y="330" stroke="rgba(113, 3, 171, 1)"></use><use xlink:href="#SvgjsPath9236" x="570" y="390" stroke="rgba(113, 3, 171, 1)"></use><use xlink:href="#SvgjsPath9238" x="570" y="450" stroke="rgba(113, 3, 171, 1)"></use><use xlink:href="#SvgjsPath9238" x="570" y="510" stroke="rgba(113, 3, 171, 1)"></use><use xlink:href="#SvgjsPath9237" x="570" y="570" stroke="rgba(113, 3, 171, 1)"></use><use xlink:href="#SvgjsPath9236" x="630" y="30" stroke="rgba(113, 3, 171, 1)"></use><use xlink:href="#SvgjsPath9239" x="630" y="90" stroke="rgba(113, 3, 171, 1)"></use><use xlink:href="#SvgjsPath9237" x="630" y="150" stroke="rgba(113, 3, 171, 1)"></use><use xlink:href="#SvgjsPath9236" x="630" y="210" stroke="rgba(113, 3, 171, 1)"></use><use xlink:href="#SvgjsPath9237" x="630" y="270" stroke="rgba(113, 3, 171, 1)"></use><use xlink:href="#SvgjsPath9238" x="630" y="330" stroke="rgba(113, 3, 171, 1)"></use><use xlink:href="#SvgjsPath9237" x="630" y="390" stroke="rgba(113, 3, 171, 1)"></use><use xlink:href="#SvgjsPath9239" x="630" y="450" stroke="rgba(113, 3, 171, 1)"></use><use xlink:href="#SvgjsPath9237" x="630" y="510" stroke="rgba(113, 3, 171, 1)"></use><use xlink:href="#SvgjsPath9236" x="630" y="570" stroke="rgba(113, 3, 171, 1)"></use><use xlink:href="#SvgjsPath9237" x="690" y="30" stroke="rgba(113, 3, 171, 1)"></use><use xlink:href="#SvgjsPath9236" x="690" y="90" stroke="rgba(113, 3, 171, 1)"></use><use xlink:href="#SvgjsPath9240" x="690" y="150" stroke="rgba(113, 3, 171, 1)"></use><use xlink:href="#SvgjsPath9236" x="690" y="210" stroke="rgba(113, 3, 171, 1)"></use><use xlink:href="#SvgjsPath9240" x="690" y="270" stroke="rgba(113, 3, 171, 1)"></use><use xlink:href="#SvgjsPath9237" x="690" y="330" stroke="rgba(113, 3, 171, 1)"></use><use xlink:href="#SvgjsPath9236" x="690" y="390" stroke="rgba(113, 3, 171, 1)"></use><use xlink:href="#SvgjsPath9240" x="690" y="450" stroke="rgba(113, 3, 171, 1)"></use><use xlink:href="#SvgjsPath9241" x="690" y="510" stroke="rgba(113, 3, 171, 1)" stroke-width="3"></use><use xlink:href="#SvgjsPath9238" x="690" y="570" stroke="rgba(113, 3, 171, 1)"></use></symbol></svg>