<svg xmlns="http://www.w3.org/2000/svg" version="1.1" xmlns:xlink="http://www.w3.org/1999/xlink" xmlns:svgjs="http://svgjs.com/svgjs" width="1600" height="560" preserveAspectRatio="none" viewBox="0 0 1600 560"><g mask="url(&quot;#SvgjsMask1091&quot;)" fill="none"><rect width="1600" height="560" x="0" y="0" fill="rgba(164, 14, 183, 1)"></rect><path d="M0,534.3C98.522,534.874,176.888,456.574,254.06,395.325C324.612,339.33,401.314,281.386,427.317,195.149C452.263,112.418,396.018,30.113,390.177,-56.099C383.672,-152.101,435.009,-253.282,391.131,-338.917C344.693,-429.548,251.456,-495.253,152.611,-519.747C55.242,-543.876,-43.1,-502.502,-138.017,-470.043C-229.133,-438.884,-330.217,-413.097,-386.898,-335.249C-442.351,-259.088,-415.583,-154.748,-434.743,-62.507C-455.571,37.765,-542.526,135.3,-504.378,230.342C-466.387,324.994,-339.519,339.732,-252.164,392.376C-167.845,443.19,-98.445,533.726,0,534.3" fill="#950da7"></path><path d="M1600 888.146C1671.295 885.009 1745.422 917.277 1809.749 886.376 1876.538 854.293 1915.826 785.5699999999999 1950.19 719.9259999999999 1986.094 651.34 2032.167 575.451 2011.583 500.823 1991.1399999999999 426.709 1899.615 402.034 1847.035 345.943 1797.274 292.86 1778.138 209.586 1711.401 180.60199999999998 1642.8 150.808 1565.663 179.61 1491.853 191.685 1407.609 205.46699999999998 1311.208 197.32799999999997 1249.38 256.186 1186.6190000000001 315.932 1162.253 411.849 1169.909 498.162 1177.0059999999999 578.173 1252.373 630.537 1288.93 702.061 1323.3020000000001 769.31 1313.23 866.602 1378.042 905.374 1443.042 944.258 1524.33 891.476 1600 888.146" fill="#b30fc8"></path></g><defs><mask id="SvgjsMask1091"><rect width="1600" height="560" fill="#ffffff"></rect></mask></defs></svg>