<svg xmlns="http://www.w3.org/2000/svg" version="1.1" xmlns:xlink="http://www.w3.org/1999/xlink" xmlns:svgjs="http://svgjs.com/svgjs" width="1440" height="560" preserveAspectRatio="none" viewBox="0 0 1440 560"><g mask="url(&quot;#SvgjsMask1067&quot;)" fill="none"><rect width="1440" height="560" x="0" y="0" fill="rgba(164, 14, 183, 1)"></rect><path d="M0,467.727C85.847,446.651,108.745,332.484,180.471,280.819C246.334,233.377,355.854,251.221,397.388,181.481C438.608,112.269,404.398,22.185,380.278,-54.676C358.886,-122.846,305.918,-171.586,267.657,-231.926C221.221,-305.16,214.545,-422.878,131.334,-447.281C48.116,-471.686,-18.719,-370.606,-99.736,-339.669C-172.068,-312.049,-255.226,-320.808,-318.122,-275.654C-390.294,-223.84,-473.614,-157.391,-477.277,-68.622C-480.969,20.858,-376.138,73.396,-335.826,153.366C-297.745,228.912,-309.853,328.221,-248.09,386.036C-183.215,446.765,-86.301,488.915,0,467.727" fill="#950da7"></path><path d="M1440 913.346C1511.937 918.727 1592.597 930.558 1650.446 887.46 1707.873 844.6759999999999 1713.97 763.0260000000001 1734.039 694.283 1751.392 634.844 1757.313 575.952 1759.4569999999999 514.069 1762.062 438.858 1782.176 360.18899999999996 1747.933 293.175 1710.3899999999999 219.702 1645.789 151.235 1565.144 133.798 1485.28 116.52999999999997 1406.936 164.38600000000002 1335.466 203.99099999999999 1275.467 237.23899999999998 1240.257 296.972 1188.811 342.344 1127.103 396.767 1024.181 417.659 1003.038 497.174 982.129 575.811 1042.354 653.441 1088.218 720.653 1128.676 779.943 1185.908 822.935 1248.8609999999999 857.419 1308.287 889.97 1372.432 908.2909999999999 1440 913.346" fill="#b30fc8"></path></g><defs><mask id="SvgjsMask1067"><rect width="1440" height="560" fill="#ffffff"></rect></mask></defs></svg>